# This file uses centimeters as units for non-parametric coordinates.

mtllib ban2.mtl
g default
v 3.688230 0.313084 0.712283
v 3.688230 0.323084 0.722283
v 3.678230 0.323084 0.712283
v 3.688230 0.398608 0.722283
v 3.688230 0.408608 0.712283
v 3.678230 0.398608 0.712283
v 3.688230 0.313084 0.681162
v 3.678230 0.323084 0.681162
v 3.688230 0.323084 0.671162
v 3.688230 0.408608 0.681162
v 3.688230 0.398608 0.671162
v 3.678230 0.398608 0.681162
v 4.311373 0.313084 0.712283
v 4.321373 0.323084 0.712283
v 4.311373 0.323084 0.722283
v 4.311373 0.408608 0.712283
v 4.311373 0.398608 0.722283
v 4.321373 0.398608 0.712283
v 4.311373 0.313084 0.681162
v 4.311373 0.323084 0.671162
v 4.321373 0.323084 0.681162
v 4.311373 0.408608 0.681162
v 4.321373 0.398608 0.681162
v 4.311373 0.398608 0.671162
v 4.884802 0.000000 0.511670
v 4.899802 0.015000 0.511670
v 4.899802 0.705985 0.511670
v 4.984681 1.000000 0.584668
v 4.984681 0.985000 0.599668
v 4.999681 0.985000 0.584668
v 4.984681 0.720985 0.599668
v 4.984681 0.705985 0.584668
v 4.999681 0.720985 0.584668
v 4.884802 0.705985 0.526670
v 4.884802 0.015000 0.526670
v 4.844422 0.070380 0.526670
v 4.829422 0.055380 0.526670
v 4.829422 0.665605 0.526670
v 4.844422 0.650605 0.526670
v 4.829422 0.665605 0.576884
v 4.829422 0.650605 0.591884
v 4.844422 0.650605 0.576884
v 4.844422 0.070380 0.576884
v 4.829422 0.070380 0.591884
v 4.829422 0.055380 0.576884
v 3.114802 0.000000 0.511670
v 3.099802 0.015000 0.511670
v 3.099802 0.705985 0.511670
v 3.014923 1.000000 0.584668
v 3.014923 0.985000 0.599668
v 2.999923 0.985000 0.584668
v 3.014923 0.720985 0.599668
v 3.014923 0.705985 0.584668
v 2.999923 0.720985 0.584668
v 3.114802 0.705985 0.526670
v 3.114802 0.015000 0.526670
v 3.155181 0.070380 0.526670
v 3.170181 0.055380 0.526670
v 3.170181 0.665605 0.526670
v 3.155181 0.650605 0.526670
v 3.170181 0.665605 0.576884
v 3.170181 0.650605 0.591884
v 3.155181 0.650605 0.576884
v 3.155181 0.070380 0.576884
v 3.170181 0.070380 0.591884
v 3.170181 0.055380 0.576884
v 4.884802 0.000000 -1.312091
v 4.899802 0.015000 -1.312091
v 4.899802 0.705985 -1.312091
v 4.984681 1.000000 -1.385089
v 4.984681 0.985000 -1.400089
v 4.999681 0.985000 -1.385089
v 4.984681 0.720985 -1.400089
v 4.984681 0.705985 -1.385089
v 4.999681 0.720985 -1.385089
v 4.884802 0.705985 -1.327091
v 4.884802 0.015000 -1.327091
v 3.114802 0.000000 -1.312091
v 3.099802 0.015000 -1.312091
v 3.099802 0.705985 -1.312091
v 3.014923 1.000000 -1.385089
v 3.014923 0.985000 -1.400089
v 2.999923 0.985000 -1.385089
v 3.014923 0.720985 -1.400089
v 3.014923 0.705985 -1.385089
v 2.999923 0.720985 -1.385089
v 3.114802 0.705985 -1.327091
v 3.114802 0.015000 -1.327091
v 3.802184 0.335286 0.590236
v 3.802184 0.335286 0.672664
v 3.802184 0.386407 0.590236
v 3.802184 0.386407 0.672664
v 3.748035 0.335286 0.590236
v 3.748035 0.335286 0.672664
v 3.748035 0.386407 0.590236
v 3.748035 0.386407 0.672664
v 4.197419 0.335286 0.590236
v 4.197419 0.335286 0.672664
v 4.197419 0.386407 0.590236
v 4.197419 0.386407 0.672664
v 4.251568 0.335286 0.590236
v 4.251568 0.335286 0.672664
v 4.251568 0.386407 0.590236
v 4.251568 0.386407 0.672664
vt 0.312180 0.588920
vt 0.306639 0.588920
vt 0.306639 0.543208
vt 0.312180 0.543208
vt 0.312180 0.592241
vt 0.306639 0.592241
vt 0.306639 0.589958
vt 0.312180 0.589958
vt 0.303319 0.588920
vt 0.303319 0.543208
vt 0.305602 0.543208
vt 0.305602 0.588920
vt 0.312180 0.542170
vt 0.306639 0.542170
vt 0.306639 0.539887
vt 0.312180 0.539887
vt 0.296741 0.543208
vt 0.302282 0.543208
vt 0.302282 0.588920
vt 0.296741 0.588920
vt 0.313217 0.543208
vt 0.312698 0.542309
vt 0.306121 0.542309
vt 0.295704 0.543208
vt 0.296223 0.542309
vt 0.302800 0.542309
vt 0.313217 0.588920
vt 0.312698 0.589819
vt 0.306121 0.589819
vt 0.295704 0.588920
vt 0.296223 0.589819
vt 0.302800 0.589819
vt 0.313217 0.539887
vt 0.313217 0.542170
vt 0.305602 0.542170
vt 0.305602 0.539887
vt 0.306639 0.538850
vt 0.312180 0.538850
vt 0.312180 0.593278
vt 0.306639 0.593278
vt 0.313217 0.589958
vt 0.313217 0.592241
vt 0.305602 0.592241
vt 0.305602 0.589958
vt 0.315500 0.543208
vt 0.315500 0.588920
vt 0.599153 0.660624
vt 0.599153 0.805120
vt 0.594898 0.797794
vt 0.594898 0.667950
vt 0.196804 0.147006
vt 0.196804 0.276849
vt 0.195248 0.276849
vt 0.195248 0.147006
vt 0.620076 0.805120
vt 0.600709 0.805120
vt 0.600709 0.660624
vt 0.620076 0.660624
vt 0.766129 0.638144
vt 0.621633 0.638144
vt 0.626988 0.631917
vt 0.760774 0.631917
vt 0.059467 0.748494
vt 0.016903 0.748494
vt 0.016903 0.626776
vt 0.059467 0.626776
vt 0.196596 0.277628
vt 0.195248 0.278406
vt 0.593798 0.666850
vt 0.621424 0.659845
vt 0.620076 0.659067
vt 0.599361 0.659845
vt 0.600709 0.659067
vt 0.766129 0.639700
vt 0.621633 0.639700
vt 0.621633 0.805120
vt 0.621633 0.660624
vt 0.144559 0.276849
vt 0.144559 0.278406
vt 0.196804 0.412192
vt 0.195248 0.412192
vt 0.196804 0.278406
vt 0.144559 0.412192
vt 0.766129 0.805120
vt 0.766129 0.806676
vt 0.621633 0.806676
vt 0.064707 0.748494
vt 0.061023 0.748494
vt 0.061023 0.626776
vt 0.064707 0.626776
vt 0.148622 0.273887
vt 0.191186 0.273887
vt 0.192286 0.272787
vt 0.192286 0.151069
vt 0.147521 0.272787
vt 0.059676 0.625998
vt 0.061023 0.625220
vt 0.016903 0.625220
vt 0.015555 0.625998
vt 0.015347 0.748494
vt 0.015347 0.626776
vt 0.059467 0.625220
vt 0.011663 0.748494
vt 0.011663 0.626776
vt 0.016903 0.621536
vt 0.015347 0.625220
vt 0.015347 0.621536
vt 0.064707 0.625220
vt 0.059467 0.621536
vt 0.766129 0.660624
vt 0.987170 0.011664
vt 0.987170 0.145450
vt 0.857327 0.145450
vt 0.857327 0.011664
vt 0.766129 0.659067
vt 0.621633 0.659067
vt 0.766129 0.827600
vt 0.760774 0.833827
vt 0.626988 0.833827
vt 0.621633 0.827600
vt 0.196596 0.146228
vt 0.195248 0.145450
vt 0.593798 0.798894
vt 0.620854 0.805329
vt 0.620076 0.806676
vt 0.620076 0.826044
vt 0.621633 0.826044
vt 0.620854 0.827392
vt 0.766129 0.826044
vt 0.196804 0.011663
vt 0.196804 0.145450
vt 0.195248 0.011664
vt 0.144559 0.147006
vt 0.144559 0.145450
vt 0.144559 0.011664
vt 0.147521 0.151069
vt 0.191186 0.149969
vt 0.148622 0.149969
vt 0.061023 0.750050
vt 0.059676 0.749272
vt 0.016903 0.750050
vt 0.015347 0.750050
vt 0.016125 0.748702
vt 0.059467 0.750050
vt 0.016903 0.753734
vt 0.015347 0.753734
vt 0.064707 0.750050
vt 0.059467 0.753734
vt 0.196804 0.543592
vt 0.195248 0.543592
vt 0.195248 0.413749
vt 0.196804 0.413749
vt 0.767685 0.805120
vt 0.767685 0.660624
vt 0.787053 0.660624
vt 0.787053 0.805120
vt 0.196596 0.412970
vt 0.792864 0.667950
vt 0.788609 0.660624
vt 0.793964 0.666850
vt 0.766907 0.660415
vt 0.767685 0.659067
vt 0.767685 0.639700
vt 0.766907 0.638352
vt 0.144559 0.413749
vt 0.788609 0.805120
vt 0.792864 0.797794
vt 0.196596 0.544370
vt 0.195248 0.545148
vt 0.793964 0.798894
vt 0.766338 0.805898
vt 0.767685 0.806676
vt 0.788401 0.805898
vt 0.787053 0.806676
vt 0.144559 0.543592
vt 0.144559 0.545148
vt 0.771437 0.542612
vt 0.771437 0.546362
vt 0.777484 0.546362
vt 0.777484 0.542612
vt 0.771437 0.550334
vt 0.777484 0.550334
vt 0.771437 0.554085
vt 0.777484 0.554085
vt 0.771437 0.558057
vt 0.777484 0.558057
vt 0.771437 0.542612
vt 0.777484 0.542612
vt 0.777484 0.546362
vt 0.771437 0.546362
vt 0.777484 0.550334
vt 0.771437 0.550334
vt 0.777484 0.554085
vt 0.771437 0.554085
vt 0.777484 0.558057
vt 0.771437 0.558057
vn 0.341590 -0.341590 0.875575
vn 0.341590 0.341590 0.875575
vn -0.341590 0.341590 0.875575
vn -0.341590 -0.341590 0.875575
vn 0.875575 -0.341590 -0.341590
vn 0.875575 0.341590 -0.341590
vn 0.875575 0.341590 0.341590
vn 0.875575 -0.341590 0.341590
vn 0.341590 0.875575 -0.341590
vn -0.341590 0.875575 -0.341590
vn -0.341590 0.875575 0.341590
vn 0.341590 0.875575 0.341590
vn -0.875575 -0.341590 0.341590
vn -0.875575 0.341590 0.341590
vn -0.875575 0.341590 -0.341590
vn -0.875575 -0.341590 -0.341590
vn -0.341590 -0.341590 -0.875575
vn -0.341590 0.341590 -0.875575
vn 0.341590 0.341590 -0.875575
vn 0.341590 -0.341590 -0.875575
vn -0.341590 -0.875575 0.341590
vn -0.341590 -0.341590 0.875575
vn -0.875575 -0.341590 0.341590
vn -0.341590 0.341590 0.875575
vn -0.341590 0.875575 0.341590
vn -0.875575 0.341590 0.341590
vn -0.341590 -0.875575 -0.341590
vn -0.875575 -0.341590 -0.341590
vn -0.341590 -0.341590 -0.875575
vn -0.341590 0.875575 -0.341590
vn -0.341590 0.341590 -0.875575
vn -0.875575 0.341590 -0.341590
vn 0.341590 -0.875575 0.341590
vn 0.875575 -0.341590 0.341590
vn 0.341590 -0.341590 0.875575
vn 0.341590 0.875575 0.341590
vn 0.341590 0.341590 0.875575
vn 0.875575 0.341590 0.341590
vn 0.341590 -0.875575 -0.341590
vn 0.341590 -0.341590 -0.875575
vn 0.875575 -0.341590 -0.341590
vn 0.341590 0.875575 -0.341590
vn 0.875575 0.341590 -0.341590
vn 0.341590 0.341590 -0.875575
vn -0.341590 -0.875575 -0.341590
vn -0.341590 -0.875575 0.341590
vn -0.875575 -0.341590 0.341590
vn -0.875575 -0.341590 -0.341590
vn -0.341590 -0.341590 0.875575
vn -0.341590 0.341590 0.875575
vn -0.875575 0.341590 0.341590
vn -0.875575 -0.341590 0.341590
vn -0.341590 0.875575 0.341590
vn -0.341590 0.875575 -0.341590
vn -0.875575 0.341590 -0.341590
vn -0.875575 0.341590 0.341590
vn -0.341590 0.341590 -0.875575
vn -0.341590 -0.341590 -0.875575
vn -0.875575 -0.341590 -0.341590
vn -0.875575 0.341590 -0.341590
vn 0.341590 -0.875575 -0.341590
vn -0.341590 -0.875575 -0.341590
vn -0.341590 -0.341590 -0.875575
vn 0.341590 -0.341590 -0.875575
vn -0.341590 0.875575 -0.341590
vn 0.341590 0.875575 -0.341590
vn 0.341590 0.341590 -0.875575
vn -0.341590 0.341590 -0.875575
vn 0.875575 0.341590 -0.341590
vn 0.875575 -0.341590 -0.341590
vn 0.341590 -0.341590 -0.875575
vn 0.341590 0.341590 -0.875575
vn 0.341590 -0.875575 0.341590
vn 0.341590 -0.875575 -0.341590
vn 0.875575 -0.341590 -0.341590
vn 0.875575 -0.341590 0.341590
vn 0.341590 0.875575 -0.341590
vn 0.341590 0.875575 0.341590
vn 0.875575 0.341590 0.341590
vn 0.875575 0.341590 -0.341590
vn 0.341590 0.341590 0.875575
vn 0.341590 -0.341590 0.875575
vn 0.875575 -0.341590 0.341590
vn 0.875575 0.341590 0.341590
vn -0.341590 -0.875575 0.341590
vn 0.341590 -0.875575 0.341590
vn 0.341590 -0.341590 0.875575
vn -0.341590 -0.341590 0.875575
vn 0.341590 0.875575 0.341590
vn -0.341590 0.875575 0.341590
vn -0.341590 0.341590 0.875575
vn 0.341590 0.341590 0.875575
vn -0.341590 -0.875575 -0.341590
vn 0.341590 -0.875575 -0.341590
vn 0.341590 -0.875575 0.341590
vn -0.341590 -0.875575 0.341590
vn 0.000000 -1.000000 0.000000
vn 0.000000 -1.000000 0.000000
vn 0.000000 -1.000000 0.000000
vn 0.000000 -1.000000 0.000000
vn 0.000000 -0.707107 0.707107
vn 0.000000 -0.707107 0.707107
vn 0.000000 -0.707107 0.707107
vn 0.000000 -0.707107 0.707107
vn 0.000000 0.000000 1.000000
vn 0.000000 0.000000 1.000000
vn 0.000000 0.000000 1.000000
vn 0.000000 0.000000 1.000000
vn 0.000000 -1.000000 0.000000
vn 0.000000 -1.000000 0.000000
vn 0.000000 -1.000000 0.000000
vn 0.000000 -1.000000 0.000000
vn 0.000000 0.000000 1.000000
vn 0.000000 0.000000 1.000000
vn 0.000000 0.000000 1.000000
vn 0.000000 0.000000 1.000000
vn 0.577284 -0.577384 0.577384
vn 0.577284 -0.577384 0.577384
vn 0.577284 -0.577384 0.577384
vn 0.000000 -1.000000 0.000000
vn 0.000000 -1.000000 0.000000
vn 0.000000 -1.000000 0.000000
vn 0.577350 0.577350 0.577350
vn 0.577350 0.577350 0.577350
vn 0.577350 0.577350 0.577350
vn 0.577284 -0.577384 0.577384
vn 0.577284 -0.577384 0.577384
vn 0.577284 -0.577384 0.577384
vn 0.707107 -0.707107 0.000000
vn 0.707107 -0.707107 0.000000
vn 0.707107 -0.707107 0.000000
vn 0.707107 -0.707107 0.000000
vn 0.707107 0.000000 0.707107
vn 0.707107 0.000000 0.707107
vn 0.707107 0.000000 0.707107
vn 0.707107 0.000000 0.707107
vn 0.000000 0.707107 0.707107
vn 0.000000 0.707107 0.707107
vn 0.000000 0.707107 0.707107
vn 0.000000 0.707107 0.707107
vn 0.707107 0.000000 0.707107
vn 0.707107 0.000000 0.707107
vn 0.707107 0.000000 0.707107
vn 0.707107 0.000000 0.707107
vn 0.000000 -0.707107 0.707107
vn 0.000000 -0.707107 0.707107
vn 0.000000 -0.707107 0.707107
vn 0.000000 -0.707107 0.707107
vn 0.707107 -0.707107 0.000000
vn 0.707107 -0.707107 0.000000
vn 0.707107 -0.707107 0.000000
vn 0.707107 -0.707107 0.000000
vn 1.000000 0.000000 0.000000
vn 1.000000 0.000000 0.000000
vn 1.000000 0.000000 0.000000
vn 1.000000 0.000000 0.000000
vn -0.707107 0.707107 0.000000
vn -0.707107 0.707107 0.000000
vn -0.707107 0.707107 0.000000
vn -0.707107 0.707107 0.000000
vn 0.000000 1.000000 0.000000
vn 0.000000 1.000000 0.000000
vn 0.000000 1.000000 0.000000
vn 0.000000 1.000000 0.000000
vn 0.000000 0.000000 1.000000
vn 0.000000 0.000000 1.000000
vn 0.000000 0.000000 1.000000
vn 0.000000 0.000000 1.000000
vn 0.000000 0.000000 1.000000
vn 0.000000 0.000000 1.000000
vn 0.000000 0.000000 1.000000
vn 0.000000 0.000000 1.000000
vn 0.000000 0.707107 0.707107
vn 0.000000 0.707107 0.707107
vn 0.000000 0.707107 0.707107
vn 0.000000 0.707107 0.707107
vn 0.000000 0.000000 1.000000
vn 0.000000 0.000000 1.000000
vn 0.000000 0.000000 1.000000
vn 0.000000 0.000000 1.000000
vn 0.000000 0.000000 1.000000
vn 0.000000 0.000000 1.000000
vn 0.577384 0.577284 0.577384
vn 0.577384 0.577284 0.577384
vn 0.577384 0.577284 0.577384
vn 0.577384 -0.577284 0.577384
vn 0.577384 -0.577284 0.577384
vn 0.577384 -0.577284 0.577384
vn 0.000000 -0.707107 0.707107
vn 0.000000 -0.707107 0.707107
vn 0.000000 -0.707107 0.707107
vn 0.000000 -0.707107 0.707107
vn 0.707107 0.000000 0.707107
vn 0.707107 0.000000 0.707107
vn 0.707107 0.000000 0.707107
vn 0.707107 0.000000 0.707107
vn 0.000000 -1.000000 0.000000
vn 0.000000 -1.000000 0.000000
vn 0.000000 -1.000000 0.000000
vn 0.000000 -1.000000 0.000000
vn 0.707107 -0.707107 0.000000
vn 0.707107 -0.707107 0.000000
vn 0.707107 -0.707107 0.000000
vn 0.707107 -0.707107 0.000000
vn 0.707107 0.707107 0.000000
vn 0.707107 0.707107 0.000000
vn 0.707107 0.707107 0.000000
vn 0.707107 0.707107 0.000000
vn 1.000000 0.000000 0.000000
vn 1.000000 0.000000 0.000000
vn 1.000000 0.000000 0.000000
vn 1.000000 0.000000 0.000000
vn 0.000000 1.000000 0.000000
vn 0.000000 1.000000 0.000000
vn 0.000000 1.000000 0.000000
vn 0.000000 1.000000 0.000000
vn 0.000000 -1.000000 0.000000
vn 0.000000 -1.000000 0.000000
vn 0.000000 -1.000000 0.000000
vn 0.000000 -1.000000 0.000000
vn 1.000000 0.000000 0.000000
vn 1.000000 0.000000 0.000000
vn 1.000000 0.000000 0.000000
vn 1.000000 0.000000 0.000000
vn 0.000000 -1.000000 0.000000
vn 0.000000 -1.000000 0.000000
vn 0.000000 -1.000000 0.000000
vn 0.000000 -1.000000 0.000000
vn -0.577284 -0.577384 0.577384
vn -0.577284 -0.577384 0.577384
vn -0.577284 -0.577384 0.577384
vn 0.000000 -1.000000 0.000000
vn 0.000000 -1.000000 0.000000
vn 0.000000 -1.000000 0.000000
vn -0.577350 0.577350 0.577350
vn -0.577350 0.577350 0.577350
vn -0.577350 0.577350 0.577350
vn -0.577284 -0.577384 0.577384
vn -0.577284 -0.577384 0.577384
vn -0.577284 -0.577384 0.577384
vn -0.707107 -0.707107 0.000000
vn -0.707107 -0.707107 0.000000
vn -0.707107 -0.707107 0.000000
vn -0.707107 -0.707107 0.000000
vn -0.707107 0.000000 0.707107
vn -0.707107 0.000000 0.707107
vn -0.707107 0.000000 0.707107
vn -0.707107 0.000000 0.707107
vn -0.707107 -0.707107 0.000000
vn -0.707107 -0.707107 0.000000
vn -0.707107 -0.707107 0.000000
vn -0.707107 -0.707107 0.000000
vn -0.707107 0.000000 0.707107
vn -0.707107 0.000000 0.707107
vn -0.707107 0.000000 0.707107
vn -0.707107 0.000000 0.707107
vn -1.000000 0.000000 0.000000
vn -1.000000 0.000000 0.000000
vn -1.000000 0.000000 0.000000
vn -1.000000 0.000000 0.000000
vn 0.000000 0.000000 1.000000
vn 0.000000 0.000000 1.000000
vn 0.000000 0.000000 1.000000
vn 0.000000 0.000000 1.000000
vn 0.000000 0.000000 1.000000
vn 0.000000 0.000000 1.000000
vn 0.000000 0.000000 1.000000
vn 0.000000 0.000000 1.000000
vn 0.000000 0.000000 1.000000
vn 0.000000 0.000000 1.000000
vn 0.000000 0.000000 1.000000
vn 0.000000 0.000000 1.000000
vn 0.000000 0.000000 1.000000
vn 0.000000 0.000000 1.000000
vn -0.577384 0.577284 0.577384
vn -0.577384 0.577284 0.577384
vn -0.577384 0.577284 0.577384
vn -0.577384 -0.577284 0.577384
vn -0.577384 -0.577284 0.577384
vn -0.577384 -0.577284 0.577384
vn -0.707107 0.000000 0.707107
vn -0.707107 0.000000 0.707107
vn -0.707107 0.000000 0.707107
vn -0.707107 0.000000 0.707107
vn -0.707107 -0.707107 0.000000
vn -0.707107 -0.707107 0.000000
vn -0.707107 -0.707107 0.000000
vn -0.707107 -0.707107 0.000000
vn -0.707107 0.707107 0.000000
vn -0.707107 0.707107 0.000000
vn -0.707107 0.707107 0.000000
vn -0.707107 0.707107 0.000000
vn -1.000000 0.000000 0.000000
vn -1.000000 0.000000 0.000000
vn -1.000000 0.000000 0.000000
vn -1.000000 0.000000 0.000000
vn 0.000000 -0.707107 -0.707107
vn 0.000000 -0.707107 -0.707107
vn 0.000000 -0.707107 -0.707107
vn 0.000000 -0.707107 -0.707107
vn 0.000000 0.000000 -1.000000
vn 0.000000 0.000000 -1.000000
vn 0.000000 0.000000 -1.000000
vn 0.000000 0.000000 -1.000000
vn 0.577284 -0.577384 -0.577384
vn 0.577284 -0.577384 -0.577384
vn 0.577284 -0.577384 -0.577384
vn 0.000000 -1.000000 0.000000
vn 0.000000 -1.000000 0.000000
vn 0.000000 -1.000000 0.000000
vn 0.577317 0.577417 -0.577317
vn 0.577317 0.577417 -0.577317
vn 0.577317 0.577417 -0.577317
vn 0.577317 -0.577417 -0.577317
vn 0.577317 -0.577417 -0.577317
vn 0.577317 -0.577417 -0.577317
vn 0.707107 0.000000 -0.707107
vn 0.707107 0.000000 -0.707107
vn 0.707107 0.000000 -0.707107
vn 0.707107 0.000000 -0.707107
vn 0.707107 0.000000 -0.707107
vn 0.707107 0.000000 -0.707107
vn 0.707107 0.000000 -0.707107
vn 0.707107 0.000000 -0.707107
vn 0.000000 -0.707107 -0.707107
vn 0.000000 -0.707107 -0.707107
vn 0.000000 -0.707107 -0.707107
vn 0.000000 -0.707107 -0.707107
vn 0.000000 -1.000000 0.000000
vn 0.000000 -1.000000 0.000000
vn 0.000000 -1.000000 0.000000
vn 0.000000 -1.000000 0.000000
vn -1.000000 0.000000 0.000000
vn -1.000000 0.000000 0.000000
vn -1.000000 0.000000 0.000000
vn -1.000000 0.000000 0.000000
vn -0.577284 -0.577384 -0.577384
vn -0.577284 -0.577384 -0.577384
vn -0.577284 -0.577384 -0.577384
vn 0.000000 -1.000000 0.000000
vn 0.000000 -1.000000 0.000000
vn 0.000000 -1.000000 0.000000
vn -0.577317 0.577417 -0.577317
vn -0.577317 0.577417 -0.577317
vn -0.577317 0.577417 -0.577317
vn -0.577317 -0.577417 -0.577317
vn -0.577317 -0.577417 -0.577317
vn -0.577317 -0.577417 -0.577317
vn -0.707107 0.000000 -0.707107
vn -0.707107 0.000000 -0.707107
vn -0.707107 0.000000 -0.707107
vn -0.707107 0.000000 -0.707107
vn -0.707107 0.000000 -0.707107
vn -0.707107 0.000000 -0.707107
vn -0.707107 0.000000 -0.707107
vn -0.707107 0.000000 -0.707107
vn 0.000000 0.707107 -0.707107
vn 0.000000 0.707107 -0.707107
vn 0.000000 0.707107 -0.707107
vn 0.000000 0.707107 -0.707107
vn 0.000000 0.000000 -1.000000
vn 0.000000 0.000000 -1.000000
vn 0.000000 0.000000 -1.000000
vn 0.000000 0.000000 -1.000000
vn 0.707107 0.707107 0.000000
vn 0.707107 0.707107 0.000000
vn 0.707107 0.707107 0.000000
vn 0.707107 0.707107 0.000000
vn 1.000000 0.000000 0.000000
vn 1.000000 0.000000 0.000000
vn 1.000000 0.000000 0.000000
vn 1.000000 0.000000 0.000000
vn 0.000000 1.000000 0.000000
vn 0.000000 1.000000 0.000000
vn 0.000000 1.000000 0.000000
vn 0.000000 1.000000 0.000000
vn -1.000000 0.000000 0.000000
vn -1.000000 0.000000 0.000000
vn -1.000000 0.000000 0.000000
vn -1.000000 0.000000 0.000000
vn 0.000000 -1.000000 0.000000
vn 0.000000 -1.000000 0.000000
vn 0.000000 -1.000000 0.000000
vn 0.000000 -1.000000 0.000000
vn -1.000000 0.000000 0.000000
vn -1.000000 0.000000 0.000000
vn -1.000000 0.000000 0.000000
vn -1.000000 0.000000 0.000000
vn 0.000000 1.000000 0.000000
vn 0.000000 1.000000 0.000000
vn 0.000000 1.000000 0.000000
vn 0.000000 1.000000 0.000000
vn 1.000000 0.000000 0.000000
vn 1.000000 0.000000 0.000000
vn 1.000000 0.000000 0.000000
vn 1.000000 0.000000 0.000000
vn 0.000000 -1.000000 0.000000
vn 0.000000 -1.000000 0.000000
vn 0.000000 -1.000000 0.000000
vn 0.000000 -1.000000 0.000000
s off
g ban2
usemtl overcooked_assets:Kitchen_Cabins
f 15/1/1 17/2/2 4/3/3 2/4/4
f 21/5/5 23/6/6 18/7/7 14/8/8
f 22/9/9 10/10/10 5/11/11 16/12/12
f 3/13/13 6/14/14 12/15/15 8/16/16
f 9/17/17 11/18/18 24/19/19 20/20/20
f 1/21/21 2/4/22 3/22/23
f 4/3/24 5/11/25 6/23/26
f 7/24/27 8/25/28 9/17/29
f 10/10/30 11/18/31 12/26/32
f 13/27/33 14/28/34 15/1/35
f 16/12/36 17/2/37 18/29/38
f 19/30/39 20/20/40 21/31/41
f 22/9/42 23/32/43 24/19/44
f 7/33/45 1/34/46 3/13/47 8/16/48
f 2/4/49 4/3/50 6/14/51 3/13/52
f 5/35/53 10/36/54 12/15/55 6/14/56
f 11/37/57 9/38/58 8/16/59 12/15/60
f 19/30/61 7/24/62 9/17/63 20/20/64
f 10/10/65 22/9/66 24/19/67 11/18/68
f 23/6/69 21/5/70 20/39/71 24/40/72
f 13/41/73 19/42/74 21/5/75 14/8/76
f 22/43/77 16/44/78 18/7/79 23/6/80
f 17/2/81 15/1/82 14/8/83 18/7/84
f 1/21/85 13/27/86 15/1/87 2/4/88
f 16/12/89 5/11/90 4/3/91 17/2/92
f 7/45/93 19/46/94 13/27/95 1/21/96
f 32/47/97 53/48/98 55/49/99 34/50/100
f 46/51/101 25/52/102 35/53/103 56/54/104
f 50/55/105 52/56/106 31/57/107 29/58/108
f 74/59/109 32/60/110 27/61/111 69/62/112
f 62/63/113 65/64/114 44/65/115 41/66/116
f 25/67/117 26/68/118 35/53/119
f 34/50/120 27/69/121 32/47/122
f 28/70/123 29/58/124 30/71/125
f 31/57/126 32/72/127 33/73/128
f 32/60/129 74/59/130 75/74/131 33/75/132
f 29/58/133 31/57/134 33/73/135 30/71/136
f 49/76/137 50/55/138 29/58/139 28/77/140
f 34/78/141 35/53/142 26/68/143 27/79/144
f 52/56/145 53/48/146 32/47/147 31/57/148
f 67/80/149 68/81/150 26/68/151 25/82/152
f 26/68/153 68/81/154 69/83/155 27/79/156
f 49/76/157 81/84/158 83/85/159 51/86/160
f 59/87/161 61/88/162 40/89/163 38/90/164
f 34/78/165 39/91/166 36/92/167 35/53/168
f 56/54/169 35/53/170 37/93/171 58/94/172
f 61/88/173 62/63/174 41/66/175 40/89/176
f 36/92/177 37/93/178 35/53/179
f 38/95/180 39/91/181 34/78/182
f 40/89/183 41/96/184 42/97/185
f 43/98/186 44/65/187 45/99/188
f 65/64/189 66/100/190 45/101/191 44/65/192
f 41/66/193 44/65/194 43/98/195 42/102/196
f 45/101/197 66/100/198 58/103/199 37/104/200
f 36/105/201 43/98/202 45/106/203 37/107/204
f 42/97/205 39/108/206 38/90/207 40/89/208
f 36/105/209 39/109/210 42/102/211 43/98/212
f 28/77/213 70/110/214 81/84/215 49/76/216
f 67/111/217 25/112/218 46/113/219 78/114/220
f 33/75/221 75/74/222 72/115/223 30/116/224
f 85/117/225 80/118/226 48/119/227 53/120/228
f 46/121/229 56/54/230 47/122/231
f 55/49/232 53/48/233 48/123/234
f 49/124/235 51/86/236 50/125/237
f 52/126/238 54/127/239 53/128/240
f 54/127/241 86/129/242 85/117/243 53/120/244
f 50/125/245 51/86/246 54/127/247 52/126/248
f 78/130/249 46/131/250 47/122/251 79/132/252
f 55/133/253 48/134/254 47/122/255 56/54/256
f 48/134/257 80/135/258 79/132/259 47/122/260
f 34/78/261 55/133/262 59/136/263 38/95/264
f 55/133/265 56/54/266 57/137/267 60/138/268
f 57/137/269 56/54/270 58/94/271
f 59/136/272 55/133/273 60/138/274
f 61/88/275 63/139/276 62/140/277
f 64/141/278 66/142/279 65/143/280
f 62/63/281 63/144/282 64/141/283 65/64/284
f 57/145/285 58/146/286 66/142/287 64/141/288
f 63/139/289 61/88/290 59/87/291 60/147/292
f 57/145/293 64/141/294 63/144/295 60/148/296
f 78/149/297 88/150/298 77/151/299 67/152/300
f 82/153/301 71/154/302 73/155/303 84/156/304
f 67/157/305 77/151/306 68/81/307
f 76/158/308 74/159/309 69/160/310
f 70/161/311 72/115/312 71/162/313
f 73/163/314 75/74/315 74/164/316
f 71/162/317 72/115/318 75/74/319 73/163/320
f 76/165/321 69/83/322 68/81/323 77/151/324
f 84/156/325 73/155/326 74/159/327 85/166/328
f 76/158/329 87/167/330 85/166/331 74/159/332
f 51/86/333 83/85/334 86/129/335 54/127/336
f 78/168/337 79/169/338 88/150/339
f 87/167/340 80/170/341 85/166/342
f 81/171/343 82/153/344 83/172/345
f 84/156/346 85/173/347 86/174/348
f 82/153/349 84/156/350 86/174/351 83/172/352
f 87/175/353 88/150/354 79/169/355 80/176/356
f 81/84/357 70/110/358 71/154/359 82/153/360
f 77/151/361 88/150/362 87/175/363 76/165/364
f 30/116/365 72/115/366 70/110/367 28/77/368
f 89/177/369 91/178/370 92/179/371 90/180/372
f 91/178/373 95/181/374 96/182/375 92/179/376
f 95/181/377 93/183/378 94/184/379 96/182/380
f 93/183/381 89/185/382 90/186/383 94/184/384
f 97/187/385 98/188/386 100/189/387 99/190/388
f 99/190/389 100/189/390 104/191/391 103/192/392
f 103/192/393 104/191/394 102/193/395 101/194/396
f 101/194/397 102/193/398 98/195/399 97/196/400
